<?xml version="1.0" encoding="UTF-8" standalone="no"?>
<!DOCTYPE svg PUBLIC "-//W3C//DTD SVG 1.0//EN" "http://www.w3.org/TR/2001/PR-SVG-20010719/DTD/svg10.dtd">
<svg width="69cm" height="29cm" viewBox="219 59 1362 562" xmlns="http://www.w3.org/2000/svg">
    <g>
        <rect style="fill: #ffffff" x="220" y="240" width="440" height="380"/>
        <rect style="fill: none; fill-opacity:0; stroke-width: 2; stroke: #000000" x="220" y="240" width="440"
              height="380"/>
    </g>
    <g>
        <rect style="fill: #ffffff" x="860" y="60" width="88.65" height="38"/>
        <rect style="fill: none; fill-opacity:0; stroke-width: 2; stroke: #000000" x="860" y="60" width="88.65"
              height="38"/>
        <text font-size="12.7998"
              style="fill: #000000;text-anchor:middle;font-family:sans-serif;font-style:normal;font-weight:normal"
              x="904.325" y="82.9">
            <tspan x="904.325" y="82.9">Tree</tspan>
        </text>
    </g>
    <g>
        <rect style="fill: #ffffff" x="380" y="260" width="120" height="40"/>
        <rect style="fill: none; fill-opacity:0; stroke-width: 2; stroke: #000000" x="380" y="260" width="120"
              height="40"/>
        <text font-size="12.7998"
              style="fill: #000000;text-anchor:middle;font-family:sans-serif;font-style:normal;font-weight:normal"
              x="440" y="283.9">
            <tspan x="440" y="283.9">tree version 1</tspan>
        </text>
    </g>
    <g>
        <rect style="fill: #ffffff" x="380" y="360" width="120" height="40"/>
        <rect style="fill: none; fill-opacity:0; stroke-width: 2; stroke: #000000" x="380" y="360" width="120"
              height="40"/>
        <text font-size="12.7998"
              style="fill: #000000;text-anchor:middle;font-family:sans-serif;font-style:normal;font-weight:normal"
              x="440" y="383.9">
            <tspan x="440" y="383.9">Tree Element</tspan>
        </text>
    </g>
    <g>
        <rect style="fill: #ffffff" x="300" y="460" width="120" height="40"/>
        <rect style="fill: none; fill-opacity:0; stroke-width: 2; stroke: #000000" x="300" y="460" width="120"
              height="40"/>
        <text font-size="12.7998"
              style="fill: #000000;text-anchor:middle;font-family:sans-serif;font-style:normal;font-weight:normal"
              x="360" y="483.9">
            <tspan x="360" y="483.9">Tree Element</tspan>
        </text>
    </g>
    <g>
        <rect style="fill: #ffffff" x="460" y="460" width="120" height="40"/>
        <rect style="fill: none; fill-opacity:0; stroke-width: 2; stroke: #000000" x="460" y="460" width="120"
              height="40"/>
        <text font-size="12.7998"
              style="fill: #000000;text-anchor:middle;font-family:sans-serif;font-style:normal;font-weight:normal"
              x="520" y="483.9">
            <tspan x="520" y="483.9">Tree Element</tspan>
        </text>
    </g>
    <g>
        <rect style="fill: #ffffff" x="240" y="560" width="120" height="40"/>
        <rect style="fill: none; fill-opacity:0; stroke-width: 2; stroke: #000000" x="240" y="560" width="120"
              height="40"/>
        <text font-size="12.7998"
              style="fill: #000000;text-anchor:middle;font-family:sans-serif;font-style:normal;font-weight:normal"
              x="300" y="583.9">
            <tspan x="300" y="583.9">Tree Element</tspan>
        </text>
    </g>
    <g>
        <rect style="fill: #ffffff" x="380" y="560" width="120" height="40"/>
        <rect style="fill: none; fill-opacity:0; stroke-width: 2; stroke: #000000" x="380" y="560" width="120"
              height="40"/>
        <text font-size="12.7998"
              style="fill: #000000;text-anchor:middle;font-family:sans-serif;font-style:normal;font-weight:normal"
              x="440" y="583.9">
            <tspan x="440" y="583.9">Tree Element</tspan>
        </text>
    </g>
    <g>
        <rect style="fill: #ffffff" x="520" y="560" width="120" height="40"/>
        <rect style="fill: none; fill-opacity:0; stroke-width: 2; stroke: #000000" x="520" y="560" width="120"
              height="40"/>
        <text font-size="12.7998"
              style="fill: #000000;text-anchor:middle;font-family:sans-serif;font-style:normal;font-weight:normal"
              x="580" y="583.9">
            <tspan x="580" y="583.9">Tree Element</tspan>
        </text>
    </g>
    <g>
        <line style="fill: none; fill-opacity:0; stroke-width: 2; stroke: #000000" x1="440" y1="300" x2="440"
              y2="349.287"/>
        <polygon style="fill: #000000" points="440,356.787 435,346.787 440,349.287 445,346.787 "/>
        <polygon style="fill: none; fill-opacity:0; stroke-width: 2; stroke: #000000"
                 points="440,356.787 435,346.787 440,349.287 445,346.787 "/>
    </g>
    <g>
        <line style="fill: none; fill-opacity:0; stroke-width: 2; stroke: #000000" x1="440" y1="400" x2="387.861"
              y2="452.139"/>
        <polygon style="fill: #000000" points="382.558,457.442 386.093,446.836 387.861,452.139 393.164,453.907 "/>
        <polygon style="fill: none; fill-opacity:0; stroke-width: 2; stroke: #000000"
                 points="382.558,457.442 386.093,446.836 387.861,452.139 393.164,453.907 "/>
    </g>
    <g>
        <line style="fill: none; fill-opacity:0; stroke-width: 2; stroke: #000000" x1="440" y1="400" x2="492.139"
              y2="452.139"/>
        <polygon style="fill: #000000" points="497.442,457.442 486.836,453.907 492.139,452.139 493.907,446.836 "/>
        <polygon style="fill: none; fill-opacity:0; stroke-width: 2; stroke: #000000"
                 points="497.442,457.442 486.836,453.907 492.139,452.139 493.907,446.836 "/>
    </g>
    <g>
        <line style="fill: none; fill-opacity:0; stroke-width: 2; stroke: #000000" x1="360" y1="500" x2="321.574"
              y2="551.235"/>
        <polygon style="fill: #000000" points="317.074,557.235 319.074,546.235 321.574,551.235 327.074,552.235 "/>
        <polygon style="fill: none; fill-opacity:0; stroke-width: 2; stroke: #000000"
                 points="317.074,557.235 319.074,546.235 321.574,551.235 327.074,552.235 "/>
    </g>
    <g>
        <line style="fill: none; fill-opacity:0; stroke-width: 2; stroke: #000000" x1="360" y1="500" x2="412.139"
              y2="552.139"/>
        <polygon style="fill: #000000" points="417.442,557.442 406.836,553.907 412.139,552.139 413.907,546.836 "/>
        <polygon style="fill: none; fill-opacity:0; stroke-width: 2; stroke: #000000"
                 points="417.442,557.442 406.836,553.907 412.139,552.139 413.907,546.836 "/>
    </g>
    <g>
        <line style="fill: none; fill-opacity:0; stroke-width: 2; stroke: #000000" x1="520" y1="500" x2="558.426"
              y2="551.235"/>
        <polygon style="fill: #000000" points="562.926,557.235 552.926,552.235 558.426,551.235 560.926,546.235 "/>
        <polygon style="fill: none; fill-opacity:0; stroke-width: 2; stroke: #000000"
                 points="562.926,557.235 552.926,552.235 558.426,551.235 560.926,546.235 "/>
    </g>
    <g>
        <line style="fill: none; fill-opacity:0; stroke-width: 2; stroke: #000000" x1="859.888" y1="98.2363"
              x2="497.226" y2="255.227"/>
        <polygon style="fill: #000000" points="490.344,258.207 497.534,249.646 497.226,255.227 501.507,258.823 "/>
        <polygon style="fill: none; fill-opacity:0; stroke-width: 2; stroke: #000000"
                 points="490.344,258.207 497.534,249.646 497.226,255.227 501.507,258.823 "/>
    </g>
    <g>
        <rect style="fill: #ffffff" x="680" y="240" width="440" height="380"/>
        <rect style="fill: none; fill-opacity:0; stroke-width: 2; stroke: #000000" x="680" y="240" width="440"
              height="380"/>
    </g>
    <g>
        <rect style="fill: #ffffff" x="840" y="260" width="120" height="40"/>
        <rect style="fill: none; fill-opacity:0; stroke-width: 2; stroke: #000000" x="840" y="260" width="120"
              height="40"/>
        <text font-size="12.7998"
              style="fill: #000000;text-anchor:middle;font-family:sans-serif;font-style:normal;font-weight:normal"
              x="900" y="283.9">
            <tspan x="900" y="283.9">tree version 2</tspan>
        </text>
    </g>
    <g>
        <rect style="fill: #ffffff" x="840" y="360" width="120" height="40"/>
        <rect style="fill: none; fill-opacity:0; stroke-width: 2; stroke: #000000" x="840" y="360" width="120"
              height="40"/>
        <text font-size="12.7998"
              style="fill: #000000;text-anchor:middle;font-family:sans-serif;font-style:normal;font-weight:normal"
              x="900" y="383.9">
            <tspan x="900" y="383.9">Tree Element</tspan>
        </text>
    </g>
    <g>
        <rect style="fill: #ffffff" x="760" y="460" width="120" height="40"/>
        <rect style="fill: none; fill-opacity:0; stroke-width: 2; stroke: #000000" x="760" y="460" width="120"
              height="40"/>
        <text font-size="12.7998"
              style="fill: #000000;text-anchor:middle;font-family:sans-serif;font-style:normal;font-weight:normal"
              x="820" y="483.9">
            <tspan x="820" y="483.9">Tree Element</tspan>
        </text>
    </g>
    <g>
        <rect style="fill: #ffffff" x="920" y="460" width="120" height="40"/>
        <rect style="fill: none; fill-opacity:0; stroke-width: 2; stroke: #000000" x="920" y="460" width="120"
              height="40"/>
        <text font-size="12.7998"
              style="fill: #000000;text-anchor:middle;font-family:sans-serif;font-style:normal;font-weight:normal"
              x="980" y="483.9">
            <tspan x="980" y="483.9">Tree Element</tspan>
        </text>
    </g>
    <g>
        <rect style="fill: #ffffff" x="700" y="560" width="120" height="40"/>
        <rect style="fill: none; fill-opacity:0; stroke-width: 2; stroke: #000000" x="700" y="560" width="120"
              height="40"/>
        <text font-size="12.7998"
              style="fill: #000000;text-anchor:middle;font-family:sans-serif;font-style:normal;font-weight:normal"
              x="760" y="583.9">
            <tspan x="760" y="583.9">Tree Element</tspan>
        </text>
    </g>
    <g>
        <rect style="fill: #ffffff" x="840" y="560" width="120" height="40"/>
        <rect style="fill: none; fill-opacity:0; stroke-width: 2; stroke: #000000" x="840" y="560" width="120"
              height="40"/>
        <text font-size="12.7998"
              style="fill: #000000;text-anchor:middle;font-family:sans-serif;font-style:normal;font-weight:normal"
              x="900" y="583.9">
            <tspan x="900" y="583.9">Tree Element</tspan>
        </text>
    </g>
    <g>
        <rect style="fill: #ffffff" x="980" y="560" width="120" height="40"/>
        <rect style="fill: none; fill-opacity:0; stroke-width: 2; stroke: #000000" x="980" y="560" width="120"
              height="40"/>
        <text font-size="12.7998"
              style="fill: #000000;text-anchor:middle;font-family:sans-serif;font-style:normal;font-weight:normal"
              x="1040" y="583.9">
            <tspan x="1040" y="583.9">Tree Element</tspan>
        </text>
    </g>
    <g>
        <line style="fill: none; fill-opacity:0; stroke-width: 2; stroke: #000000" x1="900" y1="300" x2="900"
              y2="349.287"/>
        <polygon style="fill: #000000" points="900,356.787 895,346.787 900,349.287 905,346.787 "/>
        <polygon style="fill: none; fill-opacity:0; stroke-width: 2; stroke: #000000"
                 points="900,356.787 895,346.787 900,349.287 905,346.787 "/>
    </g>
    <g>
        <line style="fill: none; fill-opacity:0; stroke-width: 2; stroke: #000000" x1="900" y1="400" x2="847.861"
              y2="452.139"/>
        <polygon style="fill: #000000" points="842.558,457.442 846.093,446.836 847.861,452.139 853.164,453.907 "/>
        <polygon style="fill: none; fill-opacity:0; stroke-width: 2; stroke: #000000"
                 points="842.558,457.442 846.093,446.836 847.861,452.139 853.164,453.907 "/>
    </g>
    <g>
        <line style="fill: none; fill-opacity:0; stroke-width: 2; stroke: #000000" x1="900" y1="400" x2="952.139"
              y2="452.139"/>
        <polygon style="fill: #000000" points="957.442,457.442 946.836,453.907 952.139,452.139 953.907,446.836 "/>
        <polygon style="fill: none; fill-opacity:0; stroke-width: 2; stroke: #000000"
                 points="957.442,457.442 946.836,453.907 952.139,452.139 953.907,446.836 "/>
    </g>
    <g>
        <line style="fill: none; fill-opacity:0; stroke-width: 2; stroke: #000000" x1="820" y1="500" x2="781.574"
              y2="551.235"/>
        <polygon style="fill: #000000" points="777.074,557.235 779.074,546.235 781.574,551.235 787.074,552.235 "/>
        <polygon style="fill: none; fill-opacity:0; stroke-width: 2; stroke: #000000"
                 points="777.074,557.235 779.074,546.235 781.574,551.235 787.074,552.235 "/>
    </g>
    <g>
        <line style="fill: none; fill-opacity:0; stroke-width: 2; stroke: #000000" x1="820" y1="500" x2="872.139"
              y2="552.139"/>
        <polygon style="fill: #000000" points="877.442,557.442 866.836,553.907 872.139,552.139 873.907,546.836 "/>
        <polygon style="fill: none; fill-opacity:0; stroke-width: 2; stroke: #000000"
                 points="877.442,557.442 866.836,553.907 872.139,552.139 873.907,546.836 "/>
    </g>
    <g>
        <line style="fill: none; fill-opacity:0; stroke-width: 2; stroke: #000000" x1="980" y1="500" x2="1018.43"
              y2="551.235"/>
        <polygon style="fill: #000000" points="1022.93,557.235 1012.93,552.235 1018.43,551.235 1020.93,546.235 "/>
        <polygon style="fill: none; fill-opacity:0; stroke-width: 2; stroke: #000000"
                 points="1022.93,557.235 1012.93,552.235 1018.43,551.235 1020.93,546.235 "/>
    </g>
    <g>
        <rect style="fill: #ffffff" x="1140" y="240" width="440" height="380"/>
        <rect style="fill: none; fill-opacity:0; stroke-width: 2; stroke: #000000" x="1140" y="240" width="440"
              height="380"/>
    </g>
    <g>
        <rect style="fill: #ffffff" x="1300" y="260" width="120" height="40"/>
        <rect style="fill: none; fill-opacity:0; stroke-width: 2; stroke: #000000" x="1300" y="260" width="120"
              height="40"/>
        <text font-size="12.7998"
              style="fill: #000000;text-anchor:middle;font-family:sans-serif;font-style:normal;font-weight:normal"
              x="1360" y="283.9">
            <tspan x="1360" y="283.9">tree version 3</tspan>
        </text>
    </g>
    <g>
        <rect style="fill: #ffffff" x="1300" y="360" width="120" height="40"/>
        <rect style="fill: none; fill-opacity:0; stroke-width: 2; stroke: #000000" x="1300" y="360" width="120"
              height="40"/>
        <text font-size="12.7998"
              style="fill: #000000;text-anchor:middle;font-family:sans-serif;font-style:normal;font-weight:normal"
              x="1360" y="383.9">
            <tspan x="1360" y="383.9">Tree Element</tspan>
        </text>
    </g>
    <g>
        <rect style="fill: #ffffff" x="1220" y="460" width="120" height="40"/>
        <rect style="fill: none; fill-opacity:0; stroke-width: 2; stroke: #000000" x="1220" y="460" width="120"
              height="40"/>
        <text font-size="12.7998"
              style="fill: #000000;text-anchor:middle;font-family:sans-serif;font-style:normal;font-weight:normal"
              x="1280" y="483.9">
            <tspan x="1280" y="483.9">Tree Element</tspan>
        </text>
    </g>
    <g>
        <rect style="fill: #ffffff" x="1380" y="460" width="120" height="40"/>
        <rect style="fill: none; fill-opacity:0; stroke-width: 2; stroke: #000000" x="1380" y="460" width="120"
              height="40"/>
        <text font-size="12.7998"
              style="fill: #000000;text-anchor:middle;font-family:sans-serif;font-style:normal;font-weight:normal"
              x="1440" y="483.9">
            <tspan x="1440" y="483.9">Tree Element</tspan>
        </text>
    </g>
    <g>
        <rect style="fill: #ffffff" x="1160" y="560" width="120" height="40"/>
        <rect style="fill: none; fill-opacity:0; stroke-width: 2; stroke: #000000" x="1160" y="560" width="120"
              height="40"/>
        <text font-size="12.7998"
              style="fill: #000000;text-anchor:middle;font-family:sans-serif;font-style:normal;font-weight:normal"
              x="1220" y="583.9">
            <tspan x="1220" y="583.9">Tree Element</tspan>
        </text>
    </g>
    <g>
        <rect style="fill: #ffffff" x="1300" y="560" width="120" height="40"/>
        <rect style="fill: none; fill-opacity:0; stroke-width: 2; stroke: #000000" x="1300" y="560" width="120"
              height="40"/>
        <text font-size="12.7998"
              style="fill: #000000;text-anchor:middle;font-family:sans-serif;font-style:normal;font-weight:normal"
              x="1360" y="583.9">
            <tspan x="1360" y="583.9">Tree Element</tspan>
        </text>
    </g>
    <g>
        <rect style="fill: #ffffff" x="1440" y="560" width="120" height="40"/>
        <rect style="fill: none; fill-opacity:0; stroke-width: 2; stroke: #000000" x="1440" y="560" width="120"
              height="40"/>
        <text font-size="12.7998"
              style="fill: #000000;text-anchor:middle;font-family:sans-serif;font-style:normal;font-weight:normal"
              x="1500" y="583.9">
            <tspan x="1500" y="583.9">Tree Element</tspan>
        </text>
    </g>
    <g>
        <line style="fill: none; fill-opacity:0; stroke-width: 2; stroke: #000000" x1="1360" y1="300" x2="1360"
              y2="349.287"/>
        <polygon style="fill: #000000" points="1360,356.787 1355,346.787 1360,349.287 1365,346.787 "/>
        <polygon style="fill: none; fill-opacity:0; stroke-width: 2; stroke: #000000"
                 points="1360,356.787 1355,346.787 1360,349.287 1365,346.787 "/>
    </g>
    <g>
        <line style="fill: none; fill-opacity:0; stroke-width: 2; stroke: #000000" x1="1360" y1="400" x2="1307.86"
              y2="452.139"/>
        <polygon style="fill: #000000" points="1302.56,457.442 1306.09,446.836 1307.86,452.139 1313.16,453.907 "/>
        <polygon style="fill: none; fill-opacity:0; stroke-width: 2; stroke: #000000"
                 points="1302.56,457.442 1306.09,446.836 1307.86,452.139 1313.16,453.907 "/>
    </g>
    <g>
        <line style="fill: none; fill-opacity:0; stroke-width: 2; stroke: #000000" x1="1360" y1="400" x2="1412.14"
              y2="452.139"/>
        <polygon style="fill: #000000" points="1417.44,457.442 1406.84,453.907 1412.14,452.139 1413.91,446.836 "/>
        <polygon style="fill: none; fill-opacity:0; stroke-width: 2; stroke: #000000"
                 points="1417.44,457.442 1406.84,453.907 1412.14,452.139 1413.91,446.836 "/>
    </g>
    <g>
        <line style="fill: none; fill-opacity:0; stroke-width: 2; stroke: #000000" x1="1280" y1="500" x2="1241.57"
              y2="551.235"/>
        <polygon style="fill: #000000" points="1237.07,557.235 1239.07,546.235 1241.57,551.235 1247.07,552.235 "/>
        <polygon style="fill: none; fill-opacity:0; stroke-width: 2; stroke: #000000"
                 points="1237.07,557.235 1239.07,546.235 1241.57,551.235 1247.07,552.235 "/>
    </g>
    <g>
        <line style="fill: none; fill-opacity:0; stroke-width: 2; stroke: #000000" x1="1280" y1="500" x2="1332.14"
              y2="552.139"/>
        <polygon style="fill: #000000" points="1337.44,557.442 1326.84,553.907 1332.14,552.139 1333.91,546.836 "/>
        <polygon style="fill: none; fill-opacity:0; stroke-width: 2; stroke: #000000"
                 points="1337.44,557.442 1326.84,553.907 1332.14,552.139 1333.91,546.836 "/>
    </g>
    <g>
        <line style="fill: none; fill-opacity:0; stroke-width: 2; stroke: #000000" x1="1440" y1="500" x2="1478.43"
              y2="551.235"/>
        <polygon style="fill: #000000" points="1482.93,557.235 1472.93,552.235 1478.43,551.235 1480.93,546.235 "/>
        <polygon style="fill: none; fill-opacity:0; stroke-width: 2; stroke: #000000"
                 points="1482.93,557.235 1472.93,552.235 1478.43,551.235 1480.93,546.235 "/>
    </g>
    <g>
        <line style="fill: none; fill-opacity:0; stroke-width: 2; stroke: #000000" x1="903.895" y1="99.0031"
              x2="900.659" y2="249.361"/>
        <polygon style="fill: #000000" points="900.498,256.86 895.714,246.754 900.659,249.361 905.712,246.97 "/>
        <polygon style="fill: none; fill-opacity:0; stroke-width: 2; stroke: #000000"
                 points="900.498,256.86 895.714,246.754 900.659,249.361 905.712,246.97 "/>
    </g>
    <g>
        <line style="fill: none; fill-opacity:0; stroke-width: 2; stroke: #000000" x1="949.631" y1="98.9847" x2="1303.7"
              y2="255.166"/>
        <polygon style="fill: #000000" points="1310.56,258.193 1299.39,258.732 1303.7,255.166 1303.43,249.582 "/>
        <polygon style="fill: none; fill-opacity:0; stroke-width: 2; stroke: #000000"
                 points="1310.56,258.193 1299.39,258.732 1303.7,255.166 1303.43,249.582 "/>
    </g>
    <g>
        <line style="fill: none; fill-opacity:0; stroke-width: 2; stroke-dasharray: 20; stroke: #000000" x1="839.005"
              y1="280" x2="510.732" y2="280"/>
        <polygon style="fill: #000000" points="503.232,280 513.232,275 510.732,280 513.232,285 "/>
        <polygon style="fill: none; fill-opacity:0; stroke-width: 2; stroke: #000000"
                 points="503.232,280 513.232,275 510.732,280 513.232,285 "/>
    </g>
    <g>
        <line style="fill: none; fill-opacity:0; stroke-width: 2; stroke-dasharray: 20; stroke: #000000" x1="1299"
              y1="280" x2="970.732" y2="280"/>
        <polygon style="fill: #000000" points="963.232,280 973.232,275 970.732,280 973.232,285 "/>
        <polygon style="fill: none; fill-opacity:0; stroke-width: 2; stroke: #000000"
                 points="963.232,280 973.232,275 970.732,280 973.232,285 "/>
    </g>
</svg>
